<?xml version="1.0" encoding="utf-8"?>
<!-- Generator: Adobe Illustrator 15.0.0, SVG Export Plug-In  -->
<!DOCTYPE svg PUBLIC "-//W3C//DTD SVG 1.1//EN" "http://www.w3.org/Graphics/SVG/1.1/DTD/svg11.dtd" [
	<!ENTITY ns_flows "http://ns.adobe.com/Flows/1.0/">
]>
<svg version="1.1"
	 xmlns="http://www.w3.org/2000/svg" xmlns:xlink="http://www.w3.org/1999/xlink" xmlns:a="http://ns.adobe.com/AdobeSVGViewerExtensions/3.0/"
	 x="0px" y="0px" width="100px" height="100px" viewBox="0 0 100 100" enable-background="new 0 0 100 100" xml:space="preserve">
<defs>
</defs>
<polygon opacity="0.84" fill="#404040" points="72.25,100 0,100 0,27.25 27,0 100,0 100,71.75 "/>
<path fill="#B28646" d="M72.337,43.465c-2.492,3.047-6.04,5.074-10.648,6.082l14.383,19.707h-1.986L59.939,49.862
	c-2.12,0.214-3.815,0.319-5.086,0.319H37.607v19.072h-1.589V13.703h18.835c6.728,0,11.945,1.577,15.654,4.729
	c3.708,3.152,5.563,7.589,5.563,13.312C76.071,36.512,74.827,40.42,72.337,43.465z M54.854,48.59c6.25,0,11.085-1.469,14.503-4.409
	c3.416-2.94,5.125-7.085,5.125-12.437c0-5.246-1.709-9.299-5.125-12.16c-3.418-2.86-8.253-4.292-14.503-4.292H37.607V48.59H54.854z"
	/>
<path fill="#FFFFFF" d="M56.537,58.998c3.586-1.162,6.479-3.065,8.606-5.666c2.581-3.165,3.897-7.237,3.897-12.11
	c0-5.883-1.966-10.534-5.836-13.822c-3.793-3.225-9.126-4.859-15.846-4.859h-19.43v55.756H32.7V60.275h14.659
	c1.05,0,2.406-0.075,4.034-0.22l13.304,18.241h5.928L56.537,58.998z M32.7,27.313h14.659c5.484,0,9.741,1.237,12.647,3.676
	c2.828,2.367,4.261,5.81,4.261,10.234c0,4.534-1.435,8.069-4.273,10.512c-2.907,2.503-7.156,3.769-12.634,3.769H32.7V27.313z"/>
</svg>
